#!OML:ASF E:\Style4\Style4.ASF
:FULLY-SPECIFIED
:DEGREES
1978
root 0.31476 18.052 -0.914521 3.26922 -10.3321 6.27533
lowerback 2.7659 2.39341 2.97524
upperback -0.975331 3.28979 -0.644869
thorax -2.34693 1.59199 -2.479
lowerneck 0.338734 -2.53073 -7.44646
upperneck 6.8806 -3.57046 5.21036
head 2.41603 -1.84821 2.94709
rclavicle 5.16343e-014 -1.59028e-015
rhumerus -87.8416 56.0076 -122.688
rradius 90.1748
rwrist -2.70988
rhand -1.74415 28.7306
rfingers 7.12502
rthumb 23.9188 0.200304
lclavicle 5.16343e-014 -1.59028e-015
lhumerus -30.7 18.7447 19.5537
lradius 111.394
lwrist -13.7237
lhand -10.0544 36.1525
lfingers 7.12502
lthumb 15.9312 65.5173
rfemur -11.3078 7.82789 9.27483
rtibia 24.8895
rfoot -16.9728 -12.7465
rtoes -14.7368
lfemur 4.35509 2.69725 -28.0115
ltibia 2.45461
lfoot -12.4788 14.1867
ltoes -10.3206
1979
root 0.311622 18.0522 -0.911678 3.24281 -10.2498 6.28554
lowerback 2.7877 2.3837 2.95874
upperback -0.964804 3.27588 -0.68507
thorax -2.34779 1.58516 -2.5113
lowerneck 0.281298 -2.54497 -7.36131
upperneck 6.93731 -3.58441 5.14334
head 2.44206 -1.85416 2.90731
rclavicle 2.20154e-014 -4.05521e-014
rhumerus -87.732 55.9152 -122.621
rradius 90.1301
rwrist -2.73494
rhand -1.73766 28.7871
rfingers 7.12502
rthumb 23.925 0.257613
lclavicle 2.20154e-014 -4.05521e-014
lhumerus -30.7191 18.6938 19.5265
lradius 111.292
lwrist -13.7451
lhand -10.0229 36.0709
lfingers 7.12502
lthumb 15.9616 65.4332
rfemur -11.2352 7.81772 9.29158
rtibia 24.8808
rfoot -16.9886 -12.7901
rtoes -14.6464
lfemur 4.16275 2.59761 -28.0157
ltibia 2.89381
lfoot -12.7079 14.1618
ltoes -10.1835
1980
root 0.308749 18.0527 -0.90948 3.22121 -10.2045 6.26693
lowerback 2.83148 2.38483 2.95337
upperback -0.96638 3.2779 -0.71428
thorax -2.37248 1.58557 -2.54063
lowerneck 0.263679 -2.56407 -7.29595
upperneck 6.97308 -3.6101 5.12946
head 2.45675 -1.86561 2.88955
rclavicle -3.56322e-014 1.82882e-014
rhumerus -87.6756 55.8049 -122.589
rradius 90.0977
rwrist -2.67568
rhand -1.76181 28.8032
rfingers 7.12502
rthumb 23.9018 0.270658
lclavicle -3.56322e-014 1.82882e-014
lhumerus -30.7176 18.6244 19.4797
lradius 111.189
lwrist -13.7156
lhand -9.8607 35.9906
lfingers 7.12502
lthumb 16.1178 65.3404
rfemur -11.1866 7.82832 9.33575
rtibia 24.8787
rfoot -17.0027 -12.8616
rtoes -14.7425
lfemur 4.01532 2.53595 -27.9893
ltibia 3.24486
lfoot -12.8887 14.152
ltoes -10.1602
1981
root 0.306515 18.0522 -0.909131 3.21478 -10.1966 6.26948
lowerback 2.86059 2.38274 2.92671
upperback -0.972892 3.27438 -0.744659
thorax -2.39546 1.5835 -2.55848
lowerneck 0.276876 -2.56693 -7.26231
upperneck 6.9913 -3.61618 5.13287
head 2.45996 -1.86798 2.8844
rclavicle -2.68856e-014 -3.97569e-015
rhumerus -87.637 55.7185 -122.555
rradius 90.0631
rwrist -2.56604
rhand -1.81449 28.9303
rfingers 7.12502
rthumb 23.8513 0.391102
lclavicle -2.68856e-014 -3.97569e-015
lhumerus -30.7298 18.6224 19.4241
lradius 111.074
lwrist -13.626
lhand -9.60596 35.7842
lfingers 7.12502
lthumb 16.3631 65.114
rfemur -11.1765 7.81248 9.34581
rtibia 24.8821
rfoot -17.0138 -12.8681
rtoes -14.8193
lfemur 3.83051 2.50757 -27.991
ltibia 3.58428
lfoot -12.9998 14.1893
ltoes -10.5115
1982
root 0.303631 18.0517 -0.908957 3.21694 -10.2374 6.24009
lowerback 2.87776 2.41129 2.91996
upperback -0.974362 3.31234 -0.762724
thorax -2.4035 1.60227 -2.57575
lowerneck 0.299346 -2.58765 -7.2064
upperneck 6.97793 -3.64478 5.11094
head 2.45105 -1.88141 2.86568
rclavicle -3.41413e-014 -6.36111e-015
rhumerus -87.5928 55.6085 -122.484
rradius 90.0343
rwrist -2.49046
rhand -1.90838 28.9843
rfingers 7.12502
rthumb 23.7613 0.433421
lclavicle -3.41413e-014 -6.36111e-015
lhumerus -30.6955 18.5659 19.387
lradius 110.917
lwrist -13.5501
lhand -9.50585 35.6604
lfingers 7.12502
lthumb 16.4595 64.9822
rfemur -11.1906 7.83014 9.38766
rtibia 24.8941
rfoot -17.0105 -12.8614
rtoes -15.0546
lfemur 3.59912 2.52857 -27.9592
ltibia 3.99358
lfoot -13.1318 14.2011
ltoes -10.7194
1983
root 0.300795 18.0513 -0.908132 3.22282 -10.3444 6.18064
lowerback 2.90008 2.46502 2.94247
upperback -0.976932 3.38529 -0.776758
thorax -2.41187 1.63804 -2.60697
lowerneck 0.304964 -2.60983 -7.17184
upperneck 6.98878 -3.67639 5.12035
head 2.45512 -1.89615 2.86168
rclavicle 9.64106e-015 1.51076e-014
rhumerus -87.5168 55.5303 -122.43
rradius 89.9455
rwrist -2.47737
rhand -1.98054 29.0199
rfingers 7.12502
rthumb 23.6921 0.459999
lclavicle 9.64106e-015 1.51076e-014
lhumerus -30.6529 18.4303 19.3801
lradius 110.734
lwrist -13.5655
lhand -9.70524 35.6439
lfingers 7.12502
lthumb 16.2675 64.9815
rfemur -11.2273 7.88426 9.45519
rtibia 24.9146
rfoot -16.9896 -12.8156
rtoes -15.0558
lfemur 3.41993 2.61685 -27.9002
ltibia 4.32953
lfoot -13.2196 14.2352
ltoes -11.0232
1984
root 0.298302 18.0506 -0.907401 3.23095 -10.4459 6.14488
lowerback 2.91449 2.50907 2.93571
upperback -0.97753 3.444 -0.786799
thorax -2.41653 1.66729 -2.61671
lowerneck 0.304698 -2.60528 -7.16857
upperneck 7.01601 -3.67352 5.15965
head 2.46518 -1.89394 2.8748
rclavicle -3.08116e-014 -6.36111e-015
rhumerus -87.4731 55.514 -122.412
rradius 89.8944
rwrist -2.61231
rhand -1.97609 29.0165
rfingers 7.12502
rthumb 23.6963 0.457162
lclavicle -3.08116e-014 -6.36111e-015
lhumerus -30.5986 18.3202 19.3345
lradius 110.543
lwrist -13.5178
lhand -9.85539 35.632
lfingers 7.12502
lthumb 16.1229 64.9813
rfemur -11.263 7.9102 9.4912
rtibia 24.9366
rfoot -16.9723 -12.7198
rtoes -14.8523
lfemur 3.32563 2.69741 -27.8629
ltibia 4.52154
lfoot -13.3714 14.2036
ltoes -10.8119
1985
root 0.294031 18.051 -0.906175 3.23482 -10.5124 6.16727
lowerback 2.89932 2.54255 2.83488
upperback -0.959123 3.48363 -0.805691
thorax -2.39111 1.68922 -2.58013
lowerneck 0.304455 -2.60569 -7.16719
upperneck 7.01384 -3.67834 5.22842
head 2.46688 -1.89471 2.89812
rclavicle -1.63997e-015 -8.74653e-015
rhumerus -87.4149 55.5134 -122.405
rradius 89.8281
rwrist -2.71799
rhand -2.17002 29.0055
rfingers 7.12502
rthumb 23.5103 0.42225
lclavicle -1.63997e-015 -8.74653e-015
lhumerus -30.4863 18.1916 19.2346
lradius 110.364
lwrist -13.3205
lhand -9.76818 35.5133
lfingers 7.12502
lthumb 16.2069 64.8558
rfemur -11.3008 7.97215 9.46983
rtibia 24.9655
rfoot -16.9735 -12.7076
rtoes -14.7709
lfemur 3.2863 2.73931 -27.8843
ltibia 4.5835
lfoot -13.3673 14.207
ltoes -10.8656
